<?xml version="1.0" standalone="no"?><!DOCTYPE svg PUBLIC "-//W3C//DTD SVG 1.1//EN" "http://www.w3.org/Graphics/SVG/1.1/DTD/svg11.dtd"><svg t="1707049272833" class="icon" viewBox="0 0 1024 1024" version="1.1" xmlns="http://www.w3.org/2000/svg" p-id="3421" xmlns:xlink="http://www.w3.org/1999/xlink" width="200" height="200"><path d="M824.379854 1023.839534H200.390385a199.780612 199.780612 0 0 1-199.844799-199.748519V199.780612A199.812706 199.812706 0 0 1 200.390385 0h623.989469a199.780612 199.780612 0 0 1 199.844799 199.780612v624.310403a199.748519 199.748519 0 0 1-199.844799 199.748519zM624.823894 178.021375l-0.609772-1.187451a645.87708 645.87708 0 0 0-118.392077-13.158242 731.469834 731.469834 0 0 0-118.392077 13.158242l-0.609772 1.187451a17.972232 17.972232 0 0 0-11.746137 23.235528l-0.898612 1.797223 5.006551 6.418654a12.131256 12.131256 0 0 1 0.930705 1.155358L426.840505 268.877425h157.770521l46.824082-58.345567a4.653524 4.653524 0 0 1 0.256746-0.449306l5.520043-6.932146-0.770238-1.893503a17.908045 17.908045 0 0 0-11.585671-23.235528z m-32.542576 130.041934h-159.888677a356.716708 356.716708 0 0 0-229.178049 314.514056c0 159.92077 91.337449 237.746952 309.122387 237.746953s309.0582-77.794089 309.122387-237.746953a356.556242 356.556242 0 0 0-229.178048-314.514056z m5.680509 289.320839h-53.082271v26.123922h53.082271v0.19256a26.284389 26.284389 0 0 1 0 52.536685h-53.114364v26.412762h-0.353026a29.622089 29.622089 0 0 1 0.706052 6.418654 32.895603 32.895603 0 1 1-65.759112 0 28.691384 28.691384 0 0 1 0.673958-6.418654h-0.513492v-26.412762h-52.793431a26.348576 26.348576 0 0 1 0-52.665058h52.793431v-26.027643h-52.697151a26.284389 26.284389 0 1 1 0-52.536685h47.97944a14.570345 14.570345 0 0 1 2.246529-4.621431l-59.019526-58.923245a27.6644 27.6644 0 0 1 37.035635-37.003542l57.767888 57.511142 53.403203-56.837183a25.674617 25.674617 0 0 1 35.463065 3.53026c10.20566 10.366127 15.468957 19.769455 5.29539 31.162566l-62.164667 63.159557a11.585671 11.585671 0 0 1 0 1.700944h53.050178a26.412762 26.412762 0 0 1 0 52.857617z" fill="#F98632" p-id="3422"></path></svg>